<svg width="96" height="96" viewBox="0 0 96 96" fill="none" xmlns="http://www.w3.org/2000/svg">
  <rect width="96" height="96" rx="26" fill="#F7F6F1"/>

  <path
    d="M48 11L78 23.5V49.8C78 64.9 68.9 74.5 48 82C27.1 74.5 18 64.9 18 49.8V23.5L48 11Z"
    fill="#3F4F37"
  />

  <path
    d="M36.7 39.5C33.6 33.7 28.8 30 22.5 28.6C23.9 35.3 27.8 39.8 34.1 42.2"
    stroke="#F7F6F1"
    stroke-width="4"
    stroke-linecap="round"
    stroke-linejoin="round"
  />

  <path
    d="M59.3 39.5C62.4 33.7 67.2 30 73.5 28.6C72.1 35.3 68.2 39.8 61.9 42.2"
    stroke="#F7F6F1"
    stroke-width="4"
    stroke-linecap="round"
    stroke-linejoin="round"
  />

  <path
    d="M48 64.6C56.7 58.9 61 52.5 61 45.2C61 38.5 55.8 33.6 48 33.6C40.2 33.6 35 38.5 35 45.2C35 52.5 39.3 58.9 48 64.6Z"
    fill="#8BA276"
    stroke="#F7F6F1"
    stroke-width="3"
    stroke-linejoin="round"
  />

  <path
    d="M48 35.8V60.6"
    stroke="#F7F6F1"
    stroke-width="3"
    stroke-linecap="round"
  />

  <circle cx="43.4" cy="45.5" r="1.8" fill="#F7F6F1"/>
  <circle cx="52.6" cy="45.5" r="1.8" fill="#F7F6F1"/>

  <path
    d="M43.8 54.4C46.2 56.1 49.8 56.1 52.2 54.4"
    stroke="#F7F6F1"
    stroke-width="2.4"
    stroke-linecap="round"
  />
</svg>